<?xml version="1.0" encoding="iso-8859-1"?>
<!-- Uploaded to: SVG Repo, www.svgrepo.com, Generator: SVG Repo Mixer Tools -->
<!DOCTYPE svg PUBLIC "-//W3C//DTD SVG 1.1//EN" "http://www.w3.org/Graphics/SVG/1.1/DTD/svg11.dtd">
<svg fill="#FFB400" version="1.1" id="Capa_1" xmlns="http://www.w3.org/2000/svg" xmlns:xlink="http://www.w3.org/1999/xlink" 
	 width="800px" height="800px" viewBox="0 0 48.696 48.695"
	 xml:space="preserve">
<g>
	<g id="_x32_9_12_">
		<g>
			<path d="M10.051,13.16c-0.149,0.133-0.325,0.247-0.524,0.342v0.345c0.111-0.041,0.237-0.102,0.377-0.185
				c0.14-0.082,0.252-0.164,0.338-0.246v2.276h0.357V12.77h-0.23C10.306,12.896,10.2,13.025,10.051,13.16z"/>
			<path d="M13.166,13.136c-0.077-0.118-0.175-0.209-0.292-0.271c-0.118-0.063-0.255-0.095-0.411-0.095
				c-0.211,0-0.388,0.058-0.527,0.171c-0.14,0.114-0.244,0.275-0.315,0.485c-0.07,0.21-0.106,0.487-0.106,0.831
				c0,0.547,0.097,0.941,0.288,1.184c0.16,0.201,0.381,0.303,0.661,0.303c0.213,0,0.389-0.059,0.528-0.172
				c0.141-0.114,0.245-0.276,0.315-0.486s0.105-0.486,0.105-0.828c0-0.288-0.021-0.518-0.065-0.688
				C13.303,13.398,13.242,13.255,13.166,13.136z M12.877,15.21c-0.112,0.159-0.25,0.239-0.414,0.239
				c-0.164,0-0.302-0.08-0.414-0.238c-0.112-0.158-0.167-0.476-0.167-0.954c0-0.478,0.061-0.805,0.184-0.982
				c0.098-0.139,0.229-0.208,0.394-0.208c0.167,0,0.306,0.079,0.418,0.236c0.112,0.158,0.168,0.477,0.168,0.955
				C13.045,14.733,12.989,15.052,12.877,15.21z"/>
			<path d="M14.574,13.16c-0.149,0.133-0.324,0.247-0.524,0.342v0.345c0.111-0.041,0.237-0.102,0.377-0.185
				c0.14-0.082,0.253-0.164,0.338-0.246v2.276h0.357V12.77h-0.23C14.83,12.896,14.723,13.025,14.574,13.16z"/>
			<path d="M17.689,13.136c-0.077-0.118-0.174-0.209-0.292-0.271c-0.118-0.062-0.255-0.095-0.41-0.095
				c-0.212,0-0.389,0.058-0.528,0.171c-0.14,0.114-0.244,0.275-0.315,0.485c-0.07,0.21-0.105,0.487-0.105,0.831
				c0,0.547,0.096,0.941,0.287,1.184c0.16,0.201,0.381,0.303,0.662,0.303c0.212,0,0.389-0.059,0.528-0.172
				c0.14-0.114,0.244-0.276,0.314-0.486s0.106-0.486,0.106-0.828c0-0.288-0.022-0.518-0.066-0.688
				C17.827,13.398,17.766,13.255,17.689,13.136z M17.4,15.21c-0.112,0.159-0.25,0.239-0.413,0.239c-0.165,0-0.303-0.08-0.415-0.238
				c-0.112-0.158-0.167-0.476-0.167-0.954c0-0.478,0.062-0.805,0.184-0.982c0.099-0.139,0.229-0.208,0.394-0.208
				c0.167,0,0.306,0.079,0.418,0.236c0.112,0.158,0.168,0.477,0.168,0.955C17.568,14.733,17.513,15.052,17.4,15.21z"/>
			<path d="M19.951,13.136c-0.077-0.118-0.175-0.209-0.292-0.271c-0.118-0.063-0.255-0.095-0.411-0.095
				c-0.212,0-0.388,0.058-0.527,0.171c-0.14,0.114-0.244,0.275-0.315,0.485c-0.07,0.21-0.106,0.487-0.106,0.831
				c0,0.547,0.097,0.941,0.288,1.184c0.16,0.201,0.38,0.303,0.661,0.303c0.213,0,0.389-0.059,0.528-0.172
				c0.14-0.114,0.245-0.276,0.315-0.486c0.07-0.21,0.105-0.486,0.105-0.828c0-0.288-0.021-0.518-0.065-0.688
				C20.088,13.398,20.027,13.255,19.951,13.136z M19.662,15.21c-0.112,0.159-0.25,0.239-0.414,0.239s-0.302-0.08-0.414-0.238
				c-0.112-0.158-0.167-0.476-0.167-0.954c0-0.478,0.061-0.805,0.184-0.982c0.098-0.139,0.229-0.208,0.394-0.208
				c0.167,0,0.306,0.079,0.418,0.236c0.112,0.158,0.168,0.477,0.168,0.955C19.83,14.733,19.774,15.052,19.662,15.21z"/>
			<path d="M22.213,13.136c-0.078-0.118-0.175-0.209-0.292-0.271c-0.118-0.063-0.256-0.095-0.411-0.095
				c-0.212,0-0.388,0.058-0.527,0.171c-0.14,0.114-0.245,0.275-0.316,0.485c-0.07,0.21-0.105,0.487-0.105,0.831
				c0,0.547,0.096,0.941,0.287,1.184c0.16,0.201,0.381,0.303,0.662,0.303c0.213,0,0.389-0.059,0.528-0.172
				c0.14-0.114,0.245-0.276,0.315-0.486c0.07-0.21,0.105-0.486,0.105-0.828c0-0.288-0.022-0.518-0.065-0.688
				C22.349,13.398,22.289,13.255,22.213,13.136z M21.924,15.21c-0.112,0.159-0.25,0.239-0.414,0.239
				c-0.165,0-0.303-0.08-0.415-0.238c-0.111-0.158-0.167-0.476-0.167-0.954c0-0.478,0.062-0.805,0.185-0.982
				c0.098-0.139,0.229-0.208,0.393-0.208c0.168,0,0.307,0.079,0.419,0.236c0.111,0.158,0.168,0.477,0.168,0.955
				C22.092,14.733,22.035,15.052,21.924,15.21z"/>
			<path d="M23.811,13.416v2.276h0.357V12.77h-0.23c-0.063,0.126-0.168,0.255-0.317,0.39c-0.149,0.133-0.325,0.247-0.524,0.342
				v0.345c0.111-0.041,0.236-0.102,0.377-0.185C23.612,13.58,23.725,13.497,23.811,13.416z"/>
			<path d="M25.581,13.16c-0.148,0.133-0.325,0.247-0.524,0.342v0.345c0.111-0.041,0.236-0.102,0.377-0.185
				c0.139-0.082,0.252-0.164,0.338-0.246v2.276h0.357V12.77h-0.23C25.836,12.896,25.731,13.025,25.581,13.16z"/>
			<path d="M28.696,13.136c-0.078-0.118-0.174-0.209-0.291-0.271c-0.119-0.063-0.256-0.095-0.412-0.095
				c-0.211,0-0.387,0.058-0.525,0.171c-0.141,0.114-0.246,0.275-0.316,0.485s-0.105,0.487-0.105,0.831
				c0,0.547,0.096,0.941,0.287,1.184c0.16,0.201,0.381,0.303,0.662,0.303c0.213,0,0.389-0.059,0.527-0.172
				c0.141-0.114,0.246-0.276,0.314-0.486c0.07-0.21,0.105-0.486,0.105-0.828c0-0.288-0.021-0.518-0.064-0.688
				C28.833,13.398,28.772,13.255,28.696,13.136z M28.407,15.21c-0.111,0.159-0.25,0.239-0.414,0.239s-0.303-0.08-0.414-0.238
				s-0.168-0.476-0.168-0.954c0-0.478,0.062-0.805,0.186-0.982c0.098-0.139,0.229-0.208,0.395-0.208s0.307,0.079,0.418,0.236
				c0.111,0.158,0.168,0.477,0.168,0.955C28.575,14.733,28.518,15.052,28.407,15.21z"/>
			<path d="M30.104,13.16c-0.15,0.133-0.326,0.247-0.525,0.342v0.345c0.111-0.041,0.238-0.102,0.377-0.185
				c0.141-0.082,0.252-0.164,0.338-0.246v2.276h0.357V12.77h-0.229C30.358,12.896,30.252,13.025,30.104,13.16z"/>
			<path d="M33.221,13.136c-0.078-0.118-0.174-0.209-0.293-0.271c-0.117-0.062-0.254-0.095-0.41-0.095
				c-0.211,0-0.389,0.058-0.527,0.171c-0.141,0.114-0.244,0.275-0.314,0.485s-0.107,0.487-0.107,0.831
				c0,0.547,0.098,0.941,0.289,1.184c0.16,0.201,0.379,0.303,0.66,0.303c0.213,0,0.389-0.059,0.529-0.172
				c0.139-0.114,0.244-0.276,0.314-0.486s0.105-0.486,0.105-0.828c0-0.288-0.021-0.518-0.066-0.688
				C33.356,13.398,33.297,13.255,33.221,13.136z M32.932,15.21c-0.113,0.159-0.25,0.239-0.414,0.239s-0.303-0.08-0.414-0.238
				c-0.113-0.158-0.168-0.476-0.168-0.954c0-0.478,0.061-0.805,0.184-0.982c0.1-0.139,0.23-0.208,0.395-0.208
				c0.168,0,0.307,0.079,0.418,0.236c0.111,0.158,0.168,0.477,0.168,0.955C33.098,14.733,33.043,15.052,32.932,15.21z"/>
			<path d="M34.817,13.416v2.276h0.357V12.77h-0.23c-0.061,0.126-0.168,0.255-0.316,0.39c-0.148,0.133-0.324,0.247-0.523,0.342
				v0.345c0.111-0.041,0.236-0.102,0.377-0.185C34.62,13.58,34.733,13.497,34.817,13.416z"/>
			<path d="M36.778,13.416v2.276h0.357V12.77h-0.23c-0.062,0.126-0.168,0.255-0.318,0.39c-0.148,0.133-0.322,0.247-0.521,0.342
				v0.345c0.109-0.041,0.236-0.102,0.375-0.185C36.579,13.58,36.692,13.497,36.778,13.416z"/>
			<path d="M10.051,18.039c-0.149,0.133-0.325,0.248-0.524,0.342v0.345c0.111-0.041,0.237-0.103,0.377-0.185
				c0.14-0.082,0.252-0.165,0.338-0.246v2.277h0.357v-2.924h-0.23C10.306,17.775,10.2,17.906,10.051,18.039z"/>
			<path d="M13.166,18.016c-0.077-0.119-0.175-0.209-0.292-0.271c-0.118-0.063-0.255-0.095-0.411-0.095
				c-0.211,0-0.388,0.058-0.527,0.172c-0.139,0.113-0.244,0.275-0.315,0.484c-0.07,0.21-0.106,0.487-0.106,0.831
				c0,0.547,0.097,0.941,0.288,1.185c0.16,0.2,0.381,0.302,0.661,0.302c0.213,0,0.389-0.058,0.528-0.172
				c0.141-0.114,0.245-0.276,0.315-0.486s0.105-0.486,0.105-0.828c0-0.288-0.021-0.518-0.065-0.688S13.242,18.135,13.166,18.016z
				 M12.877,20.091c-0.112,0.159-0.25,0.238-0.414,0.238c-0.164,0-0.302-0.079-0.414-0.238c-0.112-0.158-0.167-0.476-0.167-0.954
				c0-0.478,0.061-0.805,0.184-0.981c0.098-0.14,0.229-0.208,0.394-0.208c0.167,0,0.306,0.078,0.418,0.235
				c0.112,0.158,0.168,0.477,0.168,0.955C13.045,19.614,12.989,19.931,12.877,20.091z"/>
			<path d="M14.574,18.039c-0.149,0.133-0.324,0.248-0.524,0.342v0.345c0.111-0.041,0.237-0.103,0.377-0.185
				s0.253-0.165,0.338-0.246v2.277h0.357v-2.924h-0.23C14.83,17.775,14.723,17.906,14.574,18.039z"/>
			<path d="M17.689,18.016c-0.077-0.119-0.174-0.209-0.292-0.271c-0.118-0.063-0.255-0.095-0.41-0.095
				c-0.212,0-0.389,0.058-0.528,0.172c-0.139,0.113-0.244,0.275-0.315,0.484c-0.07,0.21-0.105,0.487-0.105,0.831
				c0,0.547,0.096,0.941,0.287,1.185c0.16,0.2,0.381,0.302,0.662,0.302c0.212,0,0.389-0.058,0.528-0.172
				c0.14-0.114,0.244-0.276,0.314-0.486s0.106-0.486,0.106-0.828c0-0.288-0.022-0.518-0.066-0.688
				C17.827,18.279,17.766,18.135,17.689,18.016z M17.4,20.091c-0.112,0.159-0.25,0.238-0.413,0.238
				c-0.165,0-0.303-0.079-0.415-0.238c-0.112-0.158-0.167-0.476-0.167-0.954c0-0.478,0.062-0.805,0.184-0.981
				c0.099-0.14,0.229-0.208,0.394-0.208c0.167,0,0.306,0.078,0.418,0.235c0.112,0.158,0.168,0.477,0.168,0.955
				C17.568,19.614,17.513,19.931,17.4,20.091z"/>
			<path d="M19.645,20.573v-2.924h-0.23c-0.063,0.126-0.168,0.256-0.318,0.39c-0.149,0.133-0.324,0.248-0.523,0.342v0.345
				c0.111-0.041,0.236-0.103,0.376-0.185s0.253-0.165,0.338-0.246v2.277L19.645,20.573L19.645,20.573z"/>
			<path d="M21.247,18.296v2.277h0.357v-2.924h-0.23c-0.062,0.126-0.168,0.256-0.317,0.39c-0.149,0.133-0.324,0.248-0.523,0.342
				v0.345c0.111-0.041,0.236-0.103,0.376-0.185S21.162,18.377,21.247,18.296z"/>
			<path d="M24.173,18.016c-0.077-0.119-0.174-0.209-0.291-0.271c-0.119-0.063-0.256-0.095-0.411-0.095
				c-0.212,0-0.388,0.058-0.527,0.172c-0.139,0.113-0.245,0.275-0.316,0.484c-0.07,0.21-0.105,0.487-0.105,0.831
				c0,0.547,0.096,0.941,0.287,1.185c0.16,0.2,0.381,0.302,0.662,0.302c0.212,0,0.389-0.058,0.528-0.172
				c0.14-0.114,0.244-0.276,0.314-0.486c0.07-0.21,0.106-0.486,0.106-0.828c0-0.288-0.022-0.518-0.066-0.688
				S24.25,18.135,24.173,18.016z M23.884,20.091c-0.111,0.159-0.25,0.238-0.413,0.238c-0.165,0-0.303-0.079-0.415-0.238
				c-0.112-0.158-0.167-0.476-0.167-0.954c0-0.478,0.062-0.805,0.185-0.981c0.098-0.14,0.229-0.208,0.393-0.208
				c0.167,0,0.307,0.078,0.418,0.235c0.112,0.158,0.168,0.477,0.168,0.955C24.052,19.614,23.996,19.931,23.884,20.091z"/>
			<path d="M25.581,18.039c-0.148,0.133-0.325,0.248-0.524,0.342v0.345c0.111-0.041,0.236-0.103,0.377-0.185
				c0.139-0.082,0.252-0.165,0.338-0.246v2.277h0.357v-2.924h-0.23C25.836,17.775,25.731,17.906,25.581,18.039z"/>
			<path d="M28.696,18.016c-0.078-0.119-0.174-0.209-0.291-0.271c-0.119-0.063-0.256-0.095-0.412-0.095
				c-0.211,0-0.387,0.058-0.525,0.172c-0.141,0.113-0.246,0.275-0.316,0.484c-0.07,0.21-0.105,0.487-0.105,0.831
				c0,0.547,0.096,0.941,0.287,1.185c0.16,0.2,0.381,0.302,0.662,0.302c0.213,0,0.389-0.058,0.527-0.172
				c0.141-0.114,0.246-0.276,0.314-0.486c0.07-0.21,0.105-0.486,0.105-0.828c0-0.288-0.021-0.518-0.064-0.688
				C28.833,18.279,28.772,18.135,28.696,18.016z M28.407,20.091c-0.111,0.159-0.25,0.238-0.414,0.238s-0.303-0.079-0.414-0.238
				c-0.111-0.158-0.168-0.476-0.168-0.954c0-0.478,0.062-0.805,0.186-0.981c0.098-0.14,0.229-0.208,0.395-0.208
				s0.307,0.078,0.418,0.235c0.111,0.158,0.168,0.477,0.168,0.955C28.575,19.614,28.518,19.931,28.407,20.091z"/>
			<path d="M30.104,18.039c-0.15,0.133-0.326,0.248-0.525,0.342v0.345c0.111-0.041,0.238-0.103,0.377-0.185
				c0.141-0.082,0.252-0.165,0.338-0.246v2.277h0.357v-2.924h-0.229C30.358,17.775,30.252,17.906,30.104,18.039z"/>
			<path d="M33.221,18.016c-0.078-0.119-0.174-0.209-0.293-0.271c-0.117-0.063-0.254-0.095-0.41-0.095
				c-0.211,0-0.389,0.058-0.527,0.172c-0.139,0.113-0.244,0.275-0.314,0.484c-0.07,0.21-0.107,0.487-0.107,0.831
				c0,0.547,0.098,0.941,0.289,1.185c0.16,0.2,0.379,0.302,0.66,0.302c0.213,0,0.389-0.058,0.529-0.172
				c0.139-0.114,0.244-0.276,0.314-0.486s0.105-0.486,0.105-0.828c0-0.288-0.021-0.518-0.066-0.688S33.297,18.135,33.221,18.016z
				 M32.932,20.091c-0.113,0.159-0.25,0.238-0.414,0.238s-0.303-0.079-0.414-0.238c-0.113-0.158-0.168-0.476-0.168-0.954
				c0-0.478,0.061-0.805,0.184-0.981c0.1-0.14,0.23-0.208,0.395-0.208c0.168,0,0.307,0.078,0.418,0.235
				c0.111,0.158,0.168,0.477,0.168,0.955C33.098,19.614,33.043,19.931,32.932,20.091z"/>
			<path d="M35.481,18.016c-0.078-0.119-0.174-0.209-0.291-0.271c-0.119-0.063-0.256-0.095-0.412-0.095
				c-0.211,0-0.387,0.058-0.527,0.172c-0.139,0.113-0.244,0.275-0.314,0.484c-0.07,0.21-0.105,0.487-0.105,0.831
				c0,0.547,0.096,0.941,0.287,1.185c0.16,0.2,0.381,0.302,0.662,0.302c0.213,0,0.389-0.058,0.527-0.172
				c0.141-0.114,0.246-0.276,0.314-0.486c0.07-0.21,0.105-0.486,0.105-0.828c0-0.288-0.021-0.518-0.064-0.688
				C35.618,18.279,35.557,18.135,35.481,18.016z M35.192,20.091c-0.111,0.159-0.25,0.238-0.414,0.238s-0.303-0.079-0.414-0.238
				c-0.111-0.158-0.168-0.476-0.168-0.954c0-0.478,0.062-0.805,0.186-0.981c0.098-0.14,0.229-0.208,0.395-0.208
				s0.305,0.078,0.418,0.235c0.111,0.158,0.168,0.477,0.168,0.955C35.36,19.614,35.305,19.931,35.192,20.091z"/>
			<path d="M37.743,18.016c-0.078-0.119-0.174-0.209-0.291-0.271c-0.119-0.063-0.256-0.095-0.412-0.095
				c-0.211,0-0.387,0.058-0.525,0.172c-0.143,0.113-0.246,0.275-0.316,0.484c-0.07,0.21-0.105,0.487-0.105,0.831
				c0,0.547,0.096,0.941,0.287,1.185c0.16,0.2,0.381,0.302,0.662,0.302c0.211,0,0.389-0.058,0.527-0.172
				c0.141-0.114,0.244-0.276,0.314-0.486s0.105-0.486,0.105-0.828c0-0.288-0.021-0.518-0.064-0.688S37.819,18.135,37.743,18.016z
				 M37.454,20.091c-0.111,0.159-0.25,0.238-0.414,0.238s-0.303-0.079-0.414-0.238c-0.111-0.158-0.168-0.476-0.168-0.954
				c0-0.478,0.062-0.805,0.186-0.981c0.098-0.14,0.229-0.208,0.393-0.208c0.168,0,0.309,0.078,0.418,0.235
				c0.113,0.158,0.17,0.477,0.17,0.955C37.622,19.614,37.565,19.931,37.454,20.091z"/>
			<path d="M10.051,22.919c-0.149,0.134-0.325,0.248-0.524,0.342v0.345c0.111-0.041,0.237-0.103,0.377-0.185
				c0.14-0.082,0.252-0.164,0.338-0.246v2.276h0.357v-2.922h-0.23C10.306,22.656,10.2,22.786,10.051,22.919z"/>
			<path d="M13.166,22.896c-0.077-0.117-0.175-0.209-0.292-0.271c-0.118-0.063-0.255-0.094-0.411-0.094
				c-0.211,0-0.388,0.057-0.527,0.171c-0.139,0.113-0.244,0.275-0.315,0.484c-0.07,0.21-0.106,0.487-0.106,0.832
				c0,0.547,0.097,0.94,0.288,1.184c0.16,0.201,0.381,0.303,0.661,0.303c0.213,0,0.389-0.059,0.528-0.173
				c0.141-0.114,0.245-0.276,0.315-0.485c0.07-0.211,0.105-0.486,0.105-0.828c0-0.289-0.021-0.518-0.065-0.688
				C13.303,23.159,13.242,23.015,13.166,22.896z M12.877,24.971c-0.112,0.16-0.25,0.238-0.414,0.238
				c-0.164,0-0.302-0.078-0.414-0.236c-0.112-0.158-0.167-0.477-0.167-0.955c0-0.478,0.061-0.805,0.184-0.982
				c0.098-0.14,0.229-0.208,0.394-0.208c0.167,0,0.306,0.079,0.418,0.235c0.112,0.157,0.168,0.477,0.168,0.955
				C13.045,24.494,12.989,24.812,12.877,24.971z"/>
			<path d="M14.574,22.919c-0.149,0.134-0.324,0.248-0.524,0.342v0.345c0.111-0.041,0.237-0.103,0.377-0.185
				s0.253-0.164,0.338-0.246v2.276h0.357v-2.922h-0.23C14.83,22.656,14.723,22.786,14.574,22.919z"/>
			<path d="M17.689,22.896c-0.077-0.117-0.174-0.209-0.292-0.271c-0.118-0.063-0.255-0.094-0.41-0.094
				c-0.212,0-0.389,0.057-0.528,0.171c-0.139,0.113-0.244,0.275-0.315,0.484c-0.07,0.21-0.105,0.487-0.105,0.832
				c0,0.547,0.096,0.94,0.287,1.184c0.16,0.201,0.381,0.303,0.662,0.303c0.212,0,0.389-0.059,0.528-0.173
				c0.14-0.114,0.244-0.276,0.314-0.485c0.07-0.211,0.106-0.486,0.106-0.828c0-0.289-0.022-0.518-0.066-0.688
				C17.827,23.159,17.766,23.015,17.689,22.896z M17.4,24.971c-0.112,0.16-0.25,0.238-0.413,0.238c-0.165,0-0.303-0.078-0.415-0.236
				c-0.112-0.158-0.167-0.477-0.167-0.955c0-0.478,0.062-0.805,0.184-0.982c0.099-0.14,0.229-0.208,0.394-0.208
				c0.167,0,0.306,0.079,0.418,0.235c0.112,0.157,0.168,0.477,0.168,0.955C17.568,24.494,17.513,24.812,17.4,24.971z"/>
			<path d="M19.951,22.896c-0.077-0.117-0.175-0.209-0.292-0.271c-0.118-0.063-0.255-0.094-0.411-0.094
				c-0.212,0-0.388,0.057-0.527,0.171c-0.139,0.113-0.244,0.275-0.315,0.484c-0.07,0.21-0.106,0.487-0.106,0.832
				c0,0.547,0.097,0.94,0.288,1.184c0.16,0.201,0.38,0.303,0.661,0.303c0.213,0,0.389-0.059,0.528-0.173
				c0.14-0.114,0.245-0.276,0.315-0.485c0.07-0.211,0.105-0.486,0.105-0.828c0-0.289-0.021-0.518-0.065-0.688
				C20.088,23.159,20.027,23.015,19.951,22.896z M19.662,24.971c-0.112,0.16-0.25,0.238-0.414,0.238s-0.302-0.078-0.414-0.236
				c-0.112-0.158-0.167-0.477-0.167-0.955c0-0.478,0.061-0.805,0.184-0.982c0.098-0.14,0.229-0.208,0.394-0.208
				c0.167,0,0.306,0.079,0.418,0.235c0.112,0.157,0.168,0.477,0.168,0.955C19.83,24.494,19.774,24.812,19.662,24.971z"/>
			<path d="M22.213,22.896c-0.078-0.117-0.175-0.209-0.292-0.271c-0.118-0.063-0.256-0.094-0.411-0.094
				c-0.212,0-0.388,0.057-0.527,0.171c-0.139,0.113-0.245,0.275-0.316,0.484c-0.07,0.21-0.105,0.487-0.105,0.832
				c0,0.547,0.096,0.94,0.287,1.184c0.16,0.201,0.381,0.303,0.662,0.303c0.213,0,0.389-0.059,0.528-0.173
				c0.14-0.114,0.245-0.276,0.315-0.485c0.07-0.211,0.105-0.486,0.105-0.828c0-0.289-0.022-0.518-0.065-0.688
				C22.349,23.159,22.289,23.015,22.213,22.896z M21.924,24.971c-0.112,0.16-0.25,0.238-0.414,0.238
				c-0.165,0-0.303-0.078-0.415-0.236c-0.111-0.158-0.167-0.477-0.167-0.955c0-0.478,0.062-0.805,0.185-0.982
				c0.098-0.14,0.229-0.208,0.393-0.208c0.168,0,0.307,0.079,0.419,0.235c0.111,0.157,0.168,0.477,0.168,0.955
				C22.092,24.494,22.035,24.812,21.924,24.971z"/>
			<path d="M23.621,22.919c-0.149,0.134-0.325,0.248-0.524,0.342v0.345c0.111-0.041,0.236-0.103,0.377-0.185
				c0.139-0.082,0.252-0.164,0.338-0.246v2.276h0.357v-2.922h-0.23C23.876,22.656,23.77,22.786,23.621,22.919z"/>
			<path d="M25.581,22.919c-0.148,0.134-0.325,0.248-0.524,0.342v0.345c0.111-0.041,0.236-0.103,0.377-0.185
				c0.139-0.082,0.252-0.164,0.338-0.246v2.276h0.357v-2.922h-0.23C25.836,22.656,25.731,22.786,25.581,22.919z"/>
			<path d="M28.696,22.896c-0.078-0.117-0.174-0.209-0.291-0.271c-0.119-0.063-0.256-0.094-0.412-0.094
				c-0.211,0-0.387,0.057-0.525,0.171c-0.141,0.113-0.246,0.275-0.316,0.484c-0.07,0.21-0.105,0.487-0.105,0.832
				c0,0.547,0.096,0.94,0.287,1.184c0.16,0.201,0.381,0.303,0.662,0.303c0.213,0,0.389-0.059,0.527-0.173
				c0.141-0.114,0.246-0.276,0.314-0.485c0.07-0.211,0.105-0.486,0.105-0.828c0-0.289-0.021-0.518-0.064-0.688
				C28.833,23.159,28.772,23.015,28.696,22.896z M28.407,24.971c-0.111,0.16-0.25,0.238-0.414,0.238s-0.303-0.078-0.414-0.236
				s-0.168-0.477-0.168-0.955c0-0.478,0.062-0.805,0.186-0.982c0.098-0.14,0.229-0.208,0.395-0.208s0.307,0.079,0.418,0.235
				c0.111,0.157,0.168,0.477,0.168,0.955C28.575,24.494,28.518,24.812,28.407,24.971z"/>
			<path d="M30.104,22.919c-0.15,0.134-0.326,0.248-0.525,0.342v0.345c0.111-0.041,0.238-0.103,0.377-0.185
				c0.141-0.082,0.252-0.164,0.338-0.246v2.276h0.357v-2.922h-0.229C30.358,22.656,30.252,22.786,30.104,22.919z"/>
			<path d="M33.221,22.896c-0.078-0.117-0.174-0.209-0.293-0.271c-0.117-0.063-0.254-0.094-0.41-0.094
				c-0.211,0-0.389,0.057-0.527,0.171c-0.139,0.113-0.244,0.275-0.314,0.484c-0.07,0.21-0.107,0.487-0.107,0.832
				c0,0.547,0.098,0.94,0.289,1.184c0.16,0.201,0.379,0.303,0.66,0.303c0.213,0,0.389-0.059,0.529-0.173
				c0.139-0.114,0.244-0.276,0.314-0.485c0.07-0.211,0.105-0.486,0.105-0.828c0-0.289-0.021-0.518-0.066-0.688
				C33.356,23.159,33.297,23.015,33.221,22.896z M32.932,24.971c-0.113,0.16-0.25,0.238-0.414,0.238s-0.303-0.078-0.414-0.236
				c-0.113-0.158-0.168-0.477-0.168-0.955c0-0.478,0.061-0.805,0.184-0.982c0.1-0.14,0.23-0.208,0.395-0.208
				c0.168,0,0.307,0.079,0.418,0.235c0.111,0.157,0.168,0.477,0.168,0.955C33.098,24.494,33.043,24.812,32.932,24.971z"/>
			<path d="M34.627,22.919c-0.148,0.134-0.324,0.248-0.523,0.342v0.345c0.111-0.041,0.236-0.103,0.377-0.185
				c0.139-0.082,0.252-0.164,0.338-0.246v2.276h0.357v-2.922h-0.23C34.883,22.656,34.776,22.786,34.627,22.919z"/>
			<path d="M36.586,22.919c-0.148,0.134-0.322,0.248-0.521,0.342v0.345c0.109-0.041,0.236-0.103,0.375-0.185
				c0.141-0.082,0.254-0.164,0.338-0.246v2.276h0.357v-2.922h-0.23C36.844,22.656,36.737,22.786,36.586,22.919z"/>
			<path d="M43.26,6.791H5.443v24.936H43.26V6.791L43.26,6.791z M39.426,24.945c-0.004,0.008-0.008,0.02-0.014,0.025
				c-0.111,0.16-0.25,0.238-0.412,0.238c-0.166,0-0.303-0.078-0.416-0.236c-0.111-0.158-0.166-0.477-0.166-0.955
				c0-0.478,0.062-0.805,0.184-0.982c0.1-0.14,0.229-0.208,0.395-0.208s0.307,0.079,0.418,0.235
				c0.004,0.008,0.008,0.019,0.014,0.025v1.857H39.426z M39.426,15.185c-0.004,0.007-0.008,0.02-0.014,0.025
				c-0.111,0.159-0.25,0.239-0.412,0.239c-0.166,0-0.303-0.08-0.416-0.238c-0.111-0.158-0.166-0.476-0.166-0.954
				c0-0.478,0.062-0.805,0.184-0.982c0.1-0.139,0.229-0.208,0.395-0.208s0.307,0.079,0.418,0.236
				c0.004,0.007,0.008,0.019,0.014,0.025v1.856H39.426z M9.276,27.893v-17.27h30.15v2.256c-0.008-0.003-0.012-0.011-0.018-0.015
				c-0.117-0.063-0.254-0.095-0.41-0.095c-0.211,0-0.389,0.058-0.527,0.171c-0.141,0.114-0.244,0.275-0.314,0.485
				s-0.105,0.487-0.105,0.831c0,0.547,0.096,0.941,0.287,1.184c0.16,0.201,0.381,0.303,0.662,0.303c0.166,0,0.305-0.046,0.426-0.117
				v2.089c-0.064,0.105-0.15,0.213-0.275,0.324c-0.148,0.133-0.324,0.248-0.523,0.342v0.345c0.111-0.041,0.236-0.103,0.377-0.185
				s0.254-0.165,0.338-0.246v2.277h0.086v2.065c-0.006-0.004-0.012-0.011-0.018-0.015c-0.117-0.063-0.254-0.094-0.41-0.094
				c-0.211,0-0.389,0.057-0.527,0.171c-0.139,0.113-0.244,0.275-0.314,0.484c-0.07,0.21-0.105,0.487-0.105,0.831
				c0,0.547,0.096,0.941,0.287,1.185c0.16,0.2,0.381,0.302,0.662,0.302c0.166,0,0.305-0.045,0.426-0.115v2.506H9.276z"/>
			<polygon points="43.254,32.885 24.887,32.885 23.809,32.885 5.442,32.885 0,40.156 0,41.904 48.696,41.904 48.696,40.156 			"/>
		</g>
	</g>
</g>
</svg>